<svg version="1.1" x="0" y="0" width="2500" height="2500" viewBox="0 0 512 512" xml:space="preserve" xmlns="http://www.w3.org/2000/svg"><path d="M61.823 163.53c3.432 0 5.94 1.849 6.732 5.149l34.453 123.952 34.85-123.952c.792-3.168 3.168-5.149 6.732-5.149h56.234c2.64 0 4.488 2.64 3.696 5.149L149.078 345.96c-1.056 3.433-3.432 5.149-6.996 5.149H62.879c-3.432 0-5.94-1.584-6.996-5.149L.176 168.68c-.792-2.376 1.188-5.149 3.829-5.149Zm153.126 35.378c0-20.857 17.16-38.018 38.017-38.018s38.018 17.161 38.018 38.018-17.161 38.017-38.018 38.017-38.017-17.16-38.017-38.017m72.074 146.657c0 3.169-2.112 5.413-5.412 5.413h-57.29c-3.168 0-5.412-2.112-5.412-5.413V256.99c0-3.168 2.112-5.412 5.412-5.412h57.29c3.168 0 5.412 2.112 5.412 5.412zm19.537-1.32 54.122-86.99-54.122-86.992c-1.98-3.168-.264-6.733 3.432-6.733h61.25c4.225 0 6.733 1.32 8.58 4.489l29.702 51.878 29.701-51.878c1.98-3.168 4.356-4.489 8.58-4.489h59.93c3.697 0 5.413 3.433 3.433 6.733l-54.122 86.991 54.122 86.991c1.848 3.168.264 6.733-3.432 6.733h-61.25c-4.225 0-6.733-1.32-8.58-4.489l-29.702-51.878-29.701 51.878c-1.848 3.169-4.224 4.489-8.58 4.489h-59.93c-3.697 0-5.413-3.433-3.433-6.733" fill="#FF5900"/></svg>